<?xml version="1.0" standalone="no"?>
<!DOCTYPE svg PUBLIC "-//W3C//DTD SVG 20010904//EN"
 "http://www.w3.org/TR/2001/REC-SVG-20010904/DTD/svg10.dtd">
<svg version="1.0" xmlns="http://www.w3.org/2000/svg"
 width="16.000000pt" height="16.000000pt" viewBox="0 0 16.000000 16.000000"
 preserveAspectRatio="xMidYMid meet">
<metadata>
Created by potrace 1.11, written by Peter Selinger 2001-2013
</metadata>
<g transform="translate(0.000000,16.000000) scale(0.003125,-0.003125)"
fill="#000000" stroke="none">
<path d="M2320 5110 c-502 -52 -982 -248 -1365 -557 -288 -232 -517 -518 -684
-854 -124 -249 -204 -502 -247 -784 -26 -169 -26 -541 0 -710 71 -465 260
-899 543 -1250 232 -288 518 -517 854 -684 249 -124 502 -204 784 -247 169
-26 541 -26 710 0 465 71 899 260 1250 543 288 232 517 518 684 854 124 249
204 502 247 784 26 169 26 541 0 710 -71 465 -260 899 -543 1250 -232 288
-518 517 -854 684 -246 123 -506 205 -779 246 -124 19 -478 28 -600 15z m1435
-1585 c247 -51 444 -172 570 -350 52 -74 98 -162 90 -175 -4 -6 -67 -10 -145
-10 l-139 0 -39 58 c-125 183 -302 271 -550 272 -193 0 -363 -62 -497 -183
-100 -90 -157 -181 -202 -324 -26 -83 -28 -98 -27 -263 1 -169 2 -178 32 -271
71 -216 231 -380 444 -457 68 -25 85 -26 243 -27 188 0 242 11 370 78 89 46
211 173 258 268 38 77 77 210 77 260 l0 29 -397 2 -398 3 0 100 0 100 530 0
530 0 0 -135 c-1 -171 -19 -250 -93 -410 -33 -72 -112 -177 -188 -251 -176
-169 -333 -239 -598 -270 -174 -19 -383 19 -541 98 -202 102 -388 302 -463
501 -53 138 -67 221 -66 392 1 171 15 252 63 376 61 156 177 307 321 416 79
60 222 131 310 153 36 9 79 20 95 25 53 14 334 11 410 -5z m-2085 -170 c76
-208 319 -880 455 -1255 58 -162 124 -342 145 -400 21 -58 35 -109 31 -113 -4
-4 -61 -6 -127 -5 l-118 3 -33 85 c-17 47 -52 141 -76 210 l-44 125 -430 3
c-337 2 -432 -1 -440 -10 -6 -7 -27 -62 -48 -123 -21 -60 -53 -150 -71 -200
l-31 -90 -127 -3 c-69 -1 -126 1 -126 6 0 6 451 1251 695 1920 3 10 38 12 146
10 l141 -3 58 -160z"/>
<path d="M1456 3189 c-3 -8 -21 -57 -40 -109 -136 -374 -296 -831 -298 -851
l-3 -24 343 -3 c189 -1 349 1 357 5 10 6 -26 117 -161 492 -95 266 -178 489
-183 494 -7 7 -12 6 -15 -4z"/>
</g>
</svg>
